<?xml version="1.0" encoding="utf-8"?>
<!-- Generator: Adobe Illustrator 18.1.1, SVG Export Plug-In . SVG Version: 6.00 Build 0)  -->
<svg version="1.1" id="Layer_1" xmlns="http://www.w3.org/2000/svg" xmlns:xlink="http://www.w3.org/1999/xlink" x="0px" y="0px"
	 viewBox="0 0 812 812" enable-background="new 0 0 812 812" xml:space="preserve">
<path fill="#EE356F" stroke="#000000" stroke-width="7" stroke-miterlimit="10" d="M776,709H45c-12.2,0-22-9.8-22-22V121
	c0-12.2,9.8-22,22-22h731c12.2,0,22,9.8,22,22v566C798,699.2,788.2,709,776,709z"/>
<path fill="#FFFFFF" stroke="#000000" stroke-width="13" stroke-miterlimit="10" d="M710.5,662h-604c-10.8,0-19.5-8.7-19.5-19.5
	v-398c0-10.8,8.7-19.5,19.5-19.5h604c10.8,0,19.5,8.7,19.5,19.5v398C730,653.3,721.3,662,710.5,662z"/>
<line stroke="#000000" stroke-width="11" stroke-miterlimit="10" x1="93" y1="329" x2="736" y2="329"/>
<path stroke="#000000" stroke-miterlimit="10" d="M183,292h-29c-6.6,0-12-5.4-12-12v-93c0-6.6,5.4-12,12-12h29c6.6,0,12,5.4,12,12
	v93C195,286.6,189.6,292,183,292z"/>
<path fill="#4E3000" stroke="#000000" stroke-miterlimit="10" d="M652,292h-29c-6.6,0-12-5.4-12-12v-93c0-6.6,5.4-12,12-12h29
	c6.6,0,12,5.4,12,12v93C664,286.6,658.6,292,652,292z"/>
<path stroke="#000000" stroke-miterlimit="10" d="M313,292h-29c-6.6,0-12-5.4-12-12v-93c0-6.6,5.4-12,12-12h29c6.6,0,12,5.4,12,12
	v93C325,286.6,319.6,292,313,292z"/>
<line stroke="#000000" stroke-width="11" stroke-miterlimit="10" x1="298.5" y1="225" x2="298.5" y2="656"/>
<line stroke="#000000" stroke-width="11" stroke-miterlimit="10" x1="519.5" y1="225" x2="519.5" y2="656"/>
<path fill="#4E3000" stroke="#000000" stroke-miterlimit="10" d="M534,292h-29c-6.6,0-12-5.4-12-12v-93c0-6.6,5.4-12,12-12h29
	c6.6,0,12,5.4,12,12v93C546,286.6,540.6,292,534,292z"/>
<line stroke="#000000" stroke-width="11" stroke-miterlimit="10" x1="87" y1="439" x2="730" y2="439"/>
<line stroke="#000000" stroke-width="11" stroke-miterlimit="10" x1="83" y1="548" x2="730" y2="548"/>
<ellipse fill="#FFFFFF" stroke="#000000" stroke-width="27" stroke-miterlimit="10" cx="611" cy="233.5" rx="182" ry="176"/>
<line fill="none" stroke="#000000" stroke-width="23" stroke-miterlimit="10" x1="611" y1="95" x2="611" y2="233.5"/>
<line fill="none" stroke="#000000" stroke-width="23" stroke-miterlimit="10" x1="611" y1="225" x2="677" y2="175"/>
</svg>
